#!OML:ASF H:\BabyWalks\Project 1\Capture day 1\Session 1\baby.ASF
:FULLY-SPECIFIED
:DEGREES
794
root 43.4691 17.195 -1.82928 322.451 78.9786 321.435
lowerback 19.6985 1.92997 3.00421
upperback 6.26324 3.40625 -0.79768
thorax -4.01096 1.84325 -3.33134
lowerneck -0.430558 2.14368 5.5508
upperneck -6.09976 2.89727 -2.26182
head -1.72747 1.40165 -1.70127
rclavicle -3.18055e-015 1.59028e-014
rhumerus -39.1005 12.0915 -85.2947
rradius 54.074
rwrist 3.8413
rhand -4.46705 -15.7989
rfingers 7.12502
rthumb 21.3054 -44.6478
lclavicle -3.18055e-015 1.59028e-014
lhumerus -40.1151 -6.91528 73.4681
lradius 69.0528
lwrist 6.63813
lhand -10.0425 6.39344
lfingers 7.12502
lthumb 15.9427 35.7573
rfemur 9.99226 9.97372 25.9754
rtibia 12.3397
rfoot -20.8029 -2.50235
rtoes -5.39824
lfemur -24.9361 2.21941 -9.37153
ltibia 42.7302
lfoot -20.1865 -6.34275
ltoes -5.19063
795
root 43.4928 17.1973 -1.84144 323.501 78.9911 322.407
lowerback 19.7119 1.92369 2.84554
upperback 6.28034 3.36625 -0.839702
thorax -4.00936 1.82384 -3.27771
lowerneck -0.413673 2.1744 5.52477
upperneck -6.21768 2.93698 -2.33436
head -1.76637 1.42278 -1.7229
rclavicle 2.46493e-014 5.56597e-015
rhumerus -39.0748 12.1991 -85.2255
rradius 54.2366
rwrist 3.65152
rhand -4.41675 -15.8788
rfingers 7.12502
rthumb 21.3537 -44.7222
lclavicle 2.46493e-014 5.56597e-015
lhumerus -39.9572 -7.22971 73.5226
lradius 69.8426
lwrist 6.79081
lhand -10.334 6.30453
lfingers 7.12502
lthumb 15.6619 35.6906
rfemur 10.0569 10.101 25.755
rtibia 12.1677
rfoot -20.7908 -2.42889
rtoes -5.44109
lfemur -24.9271 2.30565 -9.60639
ltibia 42.7356
lfoot -20.2204 -6.2925
ltoes -5.19804
796
root 43.5149 17.1993 -1.85304 324.41 78.9881 323.226
lowerback 19.7121 1.91116 2.72503
upperback 6.29512 3.32529 -0.871775
thorax -4.00167 1.804 -3.23418
lowerneck -0.405874 2.2031 5.48668
upperneck -6.32341 2.97414 -2.38715
head -1.8002 1.44269 -1.73563
rclavicle -9.14409e-015 -2.22639e-014
rhumerus -39.0391 12.2485 -85.142
rradius 54.4063
rwrist 3.44476
rhand -4.50163 -15.9509
rfingers 7.12502
rthumb 21.2722 -44.8035
lclavicle -9.14409e-015 -2.22639e-014
lhumerus -39.828 -7.56701 73.5898
lradius 70.5732
lwrist 6.98648
lhand -10.5929 6.18814
lfingers 7.12502
lthumb 15.4127 35.5936
rfemur 10.0927 10.2087 25.5669
rtibia 12.0131
rfoot -20.779 -2.37154
rtoes -5.50668
lfemur -24.9493 2.40377 -9.80605
ltibia 42.7572
lfoot -20.2565 -6.25429
ltoes -5.21727
797
root 43.5356 17.2009 -1.86412 325.135 78.9709 323.847
lowerback 19.7017 1.89011 2.64831
upperback 6.30531 3.28164 -0.891037
thorax -3.99173 1.78267 -3.20078
lowerneck -0.402695 2.23337 5.44452
upperneck -6.41818 3.01341 -2.43051
head -1.82975 1.46369 -1.74436
rclavicle 2.54444e-014 -1.82882e-014
rhumerus -38.9974 12.2438 -85.0461
rradius 54.5812
rwrist 3.22372
rhand -4.70736 -16.0214
rfingers 7.12502
rthumb 21.0746 -44.8961
lclavicle 2.54444e-014 -1.82882e-014
lhumerus -39.7303 -7.92077 73.6683
lradius 71.2406
lwrist 7.23192
lhand -10.8115 6.04134
lfingers 7.12502
lthumb 15.2021 35.4629
rfemur 10.1078 10.304 25.4209
rtibia 11.8642
rfoot -20.7606 -2.33805
rtoes -5.59516
lfemur -25.0034 2.51376 -9.96398
ltibia 42.798
lfoot -20.2989 -6.23005
ltoes -5.23819
798
root 43.5549 17.2021 -1.8747 325.659 78.9385 324.256
lowerback 19.6786 1.86112 2.61399
upperback 6.31528 3.23614 -0.893314
thorax -3.97414 1.76054 -3.1722
lowerneck -0.401296 2.26465 5.39355
upperneck -6.51044 3.05401 -2.46823
head -1.85829 1.48552 -1.74967
rclavicle 1.82882e-014 3.97569e-015
rhumerus -38.9438 12.1891 -84.9318
rradius 54.7577
rwrist 3.00018
rhand -5.02276 -16.0823
rfingers 7.12502
rthumb 20.7715 -44.9905
lclavicle 1.82882e-014 3.97569e-015
lhumerus -39.6573 -8.27621 73.7606
lradius 71.8446
lwrist 7.50588
lhand -10.9661 5.88807
lfingers 7.12502
lthumb 15.0531 35.3208
rfemur 10.1076 10.395 25.3221
rtibia 11.7139
rfoot -20.7311 -2.32396
rtoes -5.69044
lfemur -25.0868 2.63533 -10.0767
ltibia 42.8578
lfoot -20.3493 -6.2189
ltoes -5.25911
799
root 43.573 17.2029 -1.88475 326.009 78.9006 324.486
lowerback 19.6437 1.82392 2.60949
upperback 6.32834 3.18626 -0.879175
thorax -3.94669 1.73651 -3.14135
lowerneck -0.408024 2.2986 5.33367
upperneck -6.59453 3.09776 -2.50151
head -1.88277 1.50915 -1.7517
rclavicle -4.01545e-014 4.77083e-015
rhumerus -38.8769 12.092 -84.7999
rradius 54.9344
rwrist 2.77737
rhand -5.43868 -16.1396
rfingers 7.12502
rthumb 20.3719 -45.0911
lclavicle -4.01545e-014 4.77083e-015
lhumerus -39.606 -8.6225 73.8673
lradius 72.3849
lwrist 7.80262
lhand -11.0603 5.73356
lfingers 7.12502
lthumb 14.9624 35.1731
rfemur 10.1019 10.4871 25.2624
rtibia 11.5592
rfoot -20.6907 -2.32884
rtoes -5.78075
lfemur -25.1901 2.76144 -10.1557
ltibia 42.9322
lfoot -20.4073 -6.2183
ltoes -5.27505
800
root 43.5897 17.2035 -1.89429 326.206 78.8583 324.559
lowerback 19.6129 1.7812 2.62973
upperback 6.33538 3.13445 -0.849631
thorax -3.9275 1.71108 -3.10816
lowerneck -0.408073 2.33394 5.27005
upperneck -6.67185 3.14328 -2.53727
head -1.90619 1.53388 -1.75394
rclavicle 5.96354e-015 1.59028e-015
rhumerus -38.8116 11.957 -84.655
rradius 55.1105
rwrist 2.55641
rhand -5.9495 -16.2008
rfingers 7.12502
rthumb 19.8809 -45.2039
lclavicle 5.96354e-015 1.59028e-015
lhumerus -39.5816 -8.95438 73.9813
lradius 72.8745
lwrist 8.04152
lhand -11.0085 5.68404
lfingers 7.12502
lthumb 15.0123 35.1198
rfemur 10.0905 10.5846 25.2381
rtibia 11.4017
rfoot -20.6382 -2.35295
rtoes -5.87769
lfemur -25.3086 2.88863 -10.2047
ltibia 43.0147
lfoot -20.4682 -6.22358
ltoes -5.28907
801
root 43.6053 17.204 -1.90332 326.3 78.8145 324.528
lowerback 19.5816 1.73504 2.66434
upperback 6.34291 3.08159 -0.806669
thorax -3.90758 1.68511 -3.06861
lowerneck -0.410008 2.37062 5.2019
upperneck -6.74223 3.19006 -2.57669
head -1.927 1.55948 -1.75644
rclavicle 3.49861e-014 -1.35174e-014
rhumerus -38.7403 11.7857 -84.495
rradius 55.2837
rwrist 2.34711
rhand -6.54287 -16.2712
rfingers 7.12502
rthumb 19.3104 -45.3324
lclavicle 3.49861e-014 -1.35174e-014
lhumerus -39.5736 -9.27315 74.1065
lradius 73.2991
lwrist 8.24669
lhand -10.8479 5.71015
lfingers 7.12502
lthumb 15.167 35.1343
rfemur 10.0777 10.6896 25.2385
rtibia 11.2458
rfoot -20.5776 -2.39511
rtoes -5.97247
lfemur -25.4314 3.01802 -10.235
ltibia 43.097
lfoot -20.53 -6.23246
ltoes -5.29623
802
root 43.6197 17.2044 -1.91195 326.338 78.7772 324.446
lowerback 19.5584 1.68636 2.7029
upperback 6.3476 3.02676 -0.755193
thorax -3.89533 1.65789 -3.02237
lowerneck -0.410699 2.40776 5.13545
upperneck -6.80733 3.23684 -2.62533
head -1.94621 1.58532 -1.76219
rclavicle 6.75868e-015 -2.14687e-014
rhumerus -38.6705 11.5854 -84.327
rradius 55.4548
rwrist 2.14168
rhand -7.21456 -16.371
rfingers 7.12502
rthumb 18.6645 -45.4956
lclavicle 6.75868e-015 -2.14687e-014
lhumerus -39.5838 -9.57738 74.2395
lradius 73.6588
lwrist 8.40639
lhand -10.5885 5.80678
lfingers 7.12502
lthumb 15.4168 35.2119
rfemur 10.0627 10.791 25.247
rtibia 11.097
rfoot -20.5133 -2.44625
rtoes -6.05867
lfemur -25.5513 3.13918 -10.2605
ltibia 43.1701
lfoot -20.5859 -6.23954
ltoes -5.29653
